HIERARCHY
ROOT hip
{
	OFFSET 0.000000 0.000000 0.000000 
	CHANNELS 6 Xposition Yposition Zposition Xrotation Zrotation Yrotation
	JOINT abdomen
	{
		OFFSET 0.000000 3.402643 0.000000 
		CHANNELS 3 Xrotation Zrotation Yrotation
		JOINT chest
		{
			OFFSET 0.000000 8.438565 -0.680529 
			CHANNELS 3 Xrotation Zrotation Yrotation
			JOINT neck
			{
				OFFSET 0.000000 10.207942 -0.272212 
				CHANNELS 3 Xrotation Zrotation Yrotation
				JOINT head
				{
					OFFSET 0.000000 3.130431 0.000000 
					CHANNELS 3 Xrotation Zrotation Yrotation
					End Site
					{
						OFFSET 0.000000 3.130435 0.000000 
					}
				}
			}
			JOINT lCollar
			{
				OFFSET 3.470700 6.669187 -0.816635 
				CHANNELS 3 Zrotation Yrotation Xrotation
				JOINT lShldr
				{
					OFFSET 3.198488 0.000000 0.000000 
					CHANNELS 3 Zrotation Yrotation Xrotation
					JOINT lForeArm
					{
						OFFSET 10.139888 0.000000 0.000000 
						CHANNELS 3 Yrotation Zrotation Xrotation
						JOINT lHand
						{
							OFFSET 8.370511 0.000000 0.000000 
							CHANNELS 3 Zrotation Yrotation Xrotation
							End Site
							{
								OFFSET 4.083176 0.000000 0.000000 
							}
						}
					}
				}
			}
			JOINT rCollar
			{
				OFFSET -3.470700 6.669187 -0.816635 
				CHANNELS 3 Zrotation Yrotation Xrotation
				JOINT rShldr
				{
					OFFSET -3.198488 0.000000 0.000000 
					CHANNELS 3 Zrotation Yrotation Xrotation
					JOINT rForeArm
					{
						OFFSET -10.139888 0.000000 0.000000 
						CHANNELS 3 Yrotation Zrotation Xrotation
						JOINT rHand
						{
							OFFSET -8.370511 0.000000 0.000000 
							CHANNELS 3 Zrotation Yrotation Xrotation
							End Site
							{
								OFFSET -4.083176 0.000000 0.000000 
							}
						}
					}
				}
			}
		}
	}
	JOINT lThigh
	{
		OFFSET 5.308129 -1.633274 1.361059 
		CHANNELS 3 Xrotation Zrotation Yrotation
		JOINT lShin
		{
			OFFSET -2.041588 -20.007561 0.000000 
			CHANNELS 3 Xrotation Zrotation Yrotation
			JOINT lFoot
			{
				OFFSET 0.000000 -19.190928 -1.224953 
				CHANNELS 3 Xrotation Yrotation Zrotation
				End Site
				{
					OFFSET 0.000000 -2.449906 4.627600 
				}
			}
		}
	}
	JOINT rThigh
	{
		OFFSET -5.308129 -1.633274 1.361059 
		CHANNELS 3 Xrotation Zrotation Yrotation
		JOINT rShin
		{
			OFFSET 2.041588 -20.007561 0.000000 
			CHANNELS 3 Xrotation Zrotation Yrotation
			JOINT rFoot
			{
				OFFSET 0.000000 -19.190928 -1.224953 
				CHANNELS 3 Xrotation Yrotation Zrotation
				End Site
				{
					OFFSET 0.000000 -2.449906 4.627600 
				}
			}
		}
	}
}
MOTION
Frames: 20
Frame Time: 0.016667
1.690194 50.804695 -4.038274 -18.393137 -2.770733 -2.532475 39.849525 2.232708 0.470700 4.663976 3.828053 -0.469270 1.056136 4.464174 0.066846 17.680548 -5.468364 5.974079 24.387861 2.312289 2.380700 -2.485837 -31.667749 -30.302626 -46.223602 5.000000 -28.297121 7.850040 -2.516069 44.656921 -12.793783 3.919471 -0.216306 -8.070616 32.742130 -27.129982 97.359299 -5.000000 4.067866 -12.778809 -3.055732 45.000000 4.392258 19.634127 9.348778 37.214653 -5.882896 -4.868247 -19.657949 5.484263 -7.404663 7.546474 -12.028259 -3.102812 32.249435 5.876407 4.047892 -18.344213 -16.838963 6.742456 
1.497799 50.903744 -3.901046 -18.560499 -2.663690 -2.395438 39.616741 2.256500 0.510799 4.619108 3.818247 -0.577147 1.115534 4.504251 0.070635 17.689981 -5.485903 6.160631 24.514345 2.267423 2.385045 -2.898043 -31.059534 -29.742048 -47.240147 5.000000 -27.716593 8.075756 -2.771607 44.309113 -13.163301 3.794419 -0.193026 -8.114642 32.761837 -27.347355 95.776558 -5.000000 3.256701 -13.026726 -3.141660 45.000000 5.135762 19.616903 9.228009 36.218700 -5.872848 -4.690448 -19.218811 5.512678 -7.644331 8.277333 -11.792804 -3.245298 31.578321 5.857210 3.930154 -18.290329 -16.883295 6.590364 
1.313886 51.014103 -3.769474 -18.637974 -2.605417 -2.248654 39.355034 2.223760 0.558776 4.529503 3.788936 -0.635677 1.116394 4.582953 0.068583 17.722538 -5.491767 6.524018 24.768541 2.292300 2.424523 -3.335445 -30.476320 -29.188538 -48.568882 5.000000 -26.949856 8.343360 -3.046213 44.018208 -13.367368 3.717705 -0.178003 -8.006166 32.567665 -27.254250 94.701538 -5.000000 2.714008 -12.713152 -3.284505 45.000000 5.819046 19.646437 9.146503 35.154560 -5.843454 -4.530081 -18.847757 5.543057 -7.903909 9.002048 -11.551131 -3.492223 30.704119 5.856375 3.818473 -18.081619 -16.892988 6.500764 
1.129977 51.124458 -3.637903 -18.705387 -2.547116 -2.101874 39.102962 2.193873 0.599882 4.439842 3.769389 -0.684442 1.107500 4.661654 0.066530 17.764999 -5.487590 6.896190 25.032497 2.316510 2.465166 -3.750904 -29.901472 -28.656246 -49.904827 5.000000 -26.167360 8.600185 -3.318451 43.725582 -13.571423 3.641110 -0.162432 -7.891945 32.374550 -27.153160 93.596306 -5.000000 2.129926 -12.399585 -3.427533 45.000000 6.493697 19.688002 9.055679 34.087517 -5.832109 -4.366348 -18.494452 5.591526 -8.152770 9.710317 -11.291490 -3.724269 29.841288 5.842601 3.703902 -17.872749 -16.875216 6.393572 
0.954564 51.238201 -3.506335 -18.753485 -2.498576 -1.935586 38.831650 2.161303 0.649933 4.360058 3.740076 -0.742975 1.079074 4.730700 0.065934 17.798965 -5.473496 7.269293 25.335812 2.356405 2.518045 -4.206988 -29.294920 -28.125509 -51.435646 5.000000 -25.239740 8.852089 -3.489341 43.195389 -13.746158 3.564713 -0.146005 -7.647998 32.175785 -26.947941 92.802223 -5.000000 1.699163 -12.090414 -3.618407 45.000000 7.194690 19.751337 8.991926 32.911022 -5.823524 -4.164748 -18.060612 5.561661 -8.357951 10.481745 -11.009964 -3.980338 28.801920 5.817464 3.523114 -17.596287 -16.803072 6.352371 
0.784805 51.354221 -3.374762 -18.771523 -2.479301 -1.759546 38.560024 2.132603 0.691038 4.280209 3.720527 -0.791743 1.021340 4.780434 0.068257 17.824629 -5.449508 7.641465 25.659012 2.412618 2.581688 -4.667886 -28.670668 -27.596056 -53.087341 5.000000 -24.217020 9.088208 -3.606291 42.521614 -13.901631 3.507429 -0.133612 -7.323455 31.951120 -26.673264 92.220665 -5.000000 1.385099 -11.787129 -3.844658 45.000000 7.857704 19.838701 8.917989 31.718906 -5.842665 -3.969366 -17.503410 5.474645 -8.597383 11.247372 -10.710568 -4.248736 27.704235 5.774776 3.352240 -17.207029 -16.726103 6.305591 
0.619016 51.471081 -3.243477 -18.779253 -2.459987 -1.593683 38.269283 2.110208 0.744919 4.200379 3.700978 -0.850278 0.962800 4.828712 0.060956 17.844114 -5.444141 8.053445 25.971760 2.455448 2.627797 -5.120521 -28.012428 -27.047802 -54.798534 5.000000 -23.157368 9.322826 -3.706928 41.818901 -14.076497 3.440702 -0.118705 -6.932530 31.718500 -26.357746 91.699898 -5.000000 1.093302 -11.533139 -4.029958 45.000000 8.554434 19.902285 8.923742 30.476997 -5.793487 -3.751320 -16.936028 5.377918 -8.851903 12.036077 -10.377435 -4.499007 26.518150 5.719977 3.163185 -16.816347 -16.628868 6.258262 
0.469069 51.591339 -3.113325 -18.765099 -2.479669 -1.456673 38.018246 2.066604 0.829280 4.111755 3.710736 -0.879553 0.894431 4.819056 0.062416 17.824173 -5.494769 8.583913 26.214993 2.417948 2.637896 -5.574191 -27.253286 -26.394117 -56.663765 5.000000 -22.020176 9.534010 -3.827312 41.042004 -14.339144 3.364449 -0.101613 -6.257534 31.487856 -25.872793 91.533997 -5.000000 1.008139 -11.510155 -4.061399 45.000000 9.284767 19.958611 9.074345 29.172192 -5.705645 -3.492193 -16.272219 5.125860 -9.113970 12.826987 -9.966944 -4.670681 25.201218 5.569593 2.914683 -16.298223 -16.610273 6.238718 
0.319135 51.711590 -2.983180 -18.751265 -2.489575 -1.319660 37.757851 2.027511 0.925376 4.023127 3.720495 -0.919227 0.815492 4.817601 0.052794 17.811432 -5.554410 9.115325 26.458225 2.380461 2.647723 -6.006266 -26.487066 -25.742243 -58.559536 5.000000 -20.848904 9.750096 -3.942635 40.264847 -14.611542 3.288350 -0.083879 -5.591705 31.247700 -25.388382 91.352676 -5.000000 0.907031 -11.480616 -4.099866 45.000000 10.015830 20.005053 9.234143 27.862463 -5.587956 -3.218284 -15.602993 4.874121 -9.416206 13.619326 -9.568644 -4.808918 23.882429 5.427347 2.662126 -15.768031 -16.551628 6.242308 
0.191818 51.831848 -2.862079 -18.670343 -2.460423 -1.173310 37.444950 1.949373 0.931111 3.867085 3.700964 -0.928993 0.876630 4.899212 0.069977 17.836004 -5.581891 9.802236 26.643127 2.354424 2.656236 -6.374708 -25.885502 -25.138374 -60.472809 5.000000 -19.627836 9.919994 -4.197467 39.900936 -14.840059 3.493188 -0.149503 -4.756065 30.694593 -24.593952 91.415802 -5.000000 0.957973 -11.578167 -4.477464 45.000000 10.700498 19.978285 9.356451 26.416454 -5.489955 -3.007712 -14.905447 4.763554 -9.637671 14.390710 -9.167991 -4.871470 22.426022 5.221785 2.399948 -15.192586 -16.677883 6.272352 
0.070179 51.952095 -2.743254 -18.560150 -2.421487 -1.026538 37.112125 1.841401 0.934547 3.690882 3.681428 -0.938739 0.976912 4.990477 0.086542 17.868467 -5.598283 10.519236 26.818277 2.328841 2.663706 -6.725681 -25.321907 -24.532818 -62.396305 5.000000 -18.382265 10.079069 -4.476481 39.639454 -15.069503 3.766054 -0.225667 -3.869995 30.055540 -23.715425 91.543045 -5.000000 1.060328 -11.709239 -4.947103 45.000000 11.392703 19.927677 9.505872 24.924973 -5.363041 -2.790239 -14.226842 4.567664 -9.934837 15.121497 -8.786352 -4.902411 20.951469 5.003399 2.159321 -14.571782 -16.808096 6.306213 
-0.041285 52.069511 -2.628948 -18.459419 -2.362997 -0.889527 36.818588 1.702530 0.955995 3.514900 3.642361 -0.948485 1.027545 5.060975 0.095566 17.889902 -5.569510 11.039022 26.977585 2.456397 2.757633 -6.974222 -25.034029 -24.145681 -64.250534 5.000000 -17.158302 10.164331 -4.833277 39.591175 -15.278435 3.963066 -0.282452 -3.105908 29.484184 -22.960024 91.531761 -5.000000 1.060606 -11.801026 -5.377656 45.000000 12.114111 19.808922 9.605719 23.356665 -5.263960 -2.565556 -13.475152 4.569246 -10.103948 15.878486 -8.417966 -4.900486 19.437027 4.743209 1.886200 -13.926670 -16.987602 6.374561 
-0.137464 52.182671 -2.521439 -18.358019 -2.275184 -0.772427 36.584538 1.527197 1.024336 3.368165 3.554462 -0.967979 0.979590 5.072085 0.103725 17.894091 -5.478832 11.272273 27.113152 2.824080 2.961251 -7.079867 -25.158041 -24.049822 -65.981041 5.000000 -15.986237 10.126209 -5.285432 39.870018 -15.446092 4.037541 -0.306105 -2.471055 29.018305 -22.353741 91.351570 -5.000000 0.953453 -11.855222 -5.754096 44.968468 12.846810 19.673271 9.651777 21.730513 -5.186414 -2.353672 -12.654344 4.531402 -10.314390 16.642675 -8.082874 -4.872505 17.852385 4.439776 1.609155 -13.223052 -17.160072 6.456368 
-0.233638 52.295837 -2.413932 -18.255884 -2.187353 -0.664697 36.330017 1.348843 1.080095 3.212204 3.476336 -0.987493 0.940545 5.081740 0.102266 17.899921 -5.388389 11.496761 27.250006 3.190857 3.166572 -7.190748 -25.286991 -23.953835 -67.710571 5.000000 -14.813749 10.077450 -5.744427 40.146698 -15.603355 4.114568 -0.320611 -1.838377 28.547832 -21.750658 91.155716 -5.000000 0.830685 -11.911682 -6.136835 44.491714 13.607869 19.506493 9.693395 20.091961 -5.108216 -2.094254 -11.844808 4.517416 -10.467957 17.413538 -7.770394 -4.824101 16.276775 4.138683 1.360794 -12.501120 -17.338657 6.550647 
-0.301535 52.389202 -2.317736 -18.105259 -2.031154 -0.557329 36.141964 1.113611 1.102969 3.098708 3.408012 -0.899108 0.694629 5.040210 0.088865 17.757345 -5.369249 11.495848 27.247278 3.752096 3.442605 -7.037321 -25.824236 -24.191936 -69.089691 5.000000 -13.888184 9.970175 -6.322408 40.651798 -15.831756 3.793806 -0.234975 -1.456535 28.483503 -21.596291 90.643761 -5.000000 0.484688 -11.695513 -6.500037 44.313595 14.290552 19.243109 9.774877 18.416382 -4.992822 -1.858269 -11.050174 4.459101 -10.728226 18.141171 -7.547734 -4.950813 14.716149 3.816972 1.130067 -11.800554 -17.363577 6.701158 
-0.369418 52.482552 -2.221543 -17.964054 -1.884710 -0.439858 35.934231 0.875253 1.135747 2.995430 3.339692 -0.801559 0.438127 4.997223 0.064992 17.627407 -5.340725 11.485218 27.238062 4.309597 3.725887 -6.878856 -26.367241 -24.416285 -70.472534 5.000000 -12.958324 9.851903 -6.884921 41.158802 -16.050564 3.464401 -0.143320 -1.075210 28.418383 -21.443195 90.114204 -5.000000 0.127929 -11.474836 -6.865921 44.114491 14.963140 18.997746 9.845981 16.767176 -4.872038 -1.627983 -10.285741 4.377653 -10.954397 18.841782 -7.332264 -5.067422 13.163369 3.504328 0.910019 -11.080662 -17.384922 6.855667 
-0.423725 52.561478 -2.132991 -17.782360 -1.728483 -0.351992 35.716621 0.657158 1.167699 2.843184 3.271366 -0.722975 0.250822 4.917068 0.057435 17.549158 -5.328745 11.612509 27.215153 4.711646 3.926491 -6.808905 -26.775721 -24.484198 -71.721214 5.000000 -12.121703 9.740567 -7.543983 41.629814 -16.264431 3.367368 -0.127281 -0.721949 28.165941 -21.178127 89.684547 -5.000000 -0.165609 -11.323562 -7.570739 43.899078 15.592048 18.747252 9.947159 15.200475 -4.755881 -1.448226 -9.542061 4.317156 -11.135779 19.490395 -7.167670 -5.173356 11.653129 3.219414 0.713959 -10.369899 -17.387667 7.006361 
-0.468979 52.630787 -2.049531 -17.580116 -1.572246 -0.283364 35.459591 0.442741 1.192808 2.671340 3.193269 -0.654718 0.112349 4.798289 0.055714 17.520275 -5.324797 11.818478 27.188171 4.992301 4.065195 -6.798104 -27.093904 -24.438597 -72.878754 5.000000 -11.357012 9.632448 -8.243625 42.063625 -16.470589 3.423091 -0.145321 -0.379975 27.814739 -20.837048 89.317375 -5.000000 -0.414717 -11.197819 -8.503969 43.652515 16.164364 18.481173 10.058714 13.649811 -4.655824 -1.313359 -8.777614 4.259194 -11.314969 20.072500 -7.020052 -5.263049 10.205715 2.955406 0.569831 -9.677229 -17.418604 7.150798 
-0.509421 52.695843 -1.969184 -17.358486 -1.406242 -0.195493 35.192600 0.239631 1.221133 2.489038 3.115165 -0.596202 -0.026064 4.698822 0.051066 17.496395 -5.329753 12.054515 27.178555 5.210876 4.174448 -6.831225 -27.331945 -24.330948 -74.051064 5.000000 -10.580436 9.530287 -8.836560 42.414974 -16.687243 3.516078 -0.175039 -0.000213 27.440836 -20.472530 88.973831 -5.000000 -0.658879 -11.088157 -9.319676 43.398769 16.691822 18.207752 10.110314 12.172868 -4.550163 -1.177459 -8.082554 4.277679 -11.467505 20.618294 -6.902822 -5.368893 8.787218 2.693798 0.404744 -9.007272 -17.466852 7.270642 
-0.530629 52.743931 -1.901280 -17.049116 -1.220702 -0.078315 34.857327 0.074739 1.223470 2.264631 3.007743 -0.576659 -0.193710 4.628321 0.042034 17.468563 -5.419470 12.340984 27.224968 5.155224 4.153813 -7.078655 -27.238340 -23.941322 -75.234406 5.000000 -9.806706 9.477893 -9.009287 42.344910 -16.954866 3.711420 -0.237881 0.512201 27.029041 -19.970041 88.744621 -5.000000 -0.818774 -11.019193 -9.624643 43.071053 17.016630 17.926455 9.917140 10.811218 -4.489807 -1.047287 -7.364173 4.441916 -11.532077 21.025526 -6.824091 -5.534920 7.458179 2.488256 0.322872 -8.456730 -17.586288 7.300667 
